<svg xmlns="http://www.w3.org/2000/svg" viewBox="0 0 24 24" fill="currentColor"><path d="M23.994 6.124a9.23 9.23 0 0 0-.24-2.19c-.317-1.31-1.062-2.31-2.18-3.043A5.022 5.022 0 0 0 19.7.28C19.1.1 18.48.04 17.86.01c-.25-.01-.5-.01-.76-.01H6.89c-.26 0-.52 0-.78.01C5.5.04 4.88.1 4.28.28c-.87.27-1.61.72-2.19 1.39-.5.56-.86 1.21-1.07 1.94A9.23 9.23 0 0 0 .78 5.88c-.01.25-.01.5-.01.76v10.72c0 .26 0 .52.01.78.02.62.08 1.24.26 1.84.27.87.72 1.61 1.39 2.19.56.5 1.21.86 1.94 1.07.6.18 1.22.24 1.84.26.26.01.52.01.78.01h10.72c.26 0 .52 0 .78-.01.62-.02 1.24-.08 1.84-.26.87-.27 1.61-.72 2.19-1.39.5-.56.86-1.21 1.07-1.94.18-.6.24-1.22.26-1.84.01-.26.01-.52.01-.78V6.88c0-.26 0-.52-.01-.76zm-6.25 4.39v5.69c0 .84-.28 1.49-.88 1.96-.46.37-1 .56-1.59.62-.19.02-.39.03-.58.01-.87-.08-1.57-.56-1.86-1.37-.3-.84-.04-1.77.66-2.32.4-.31.87-.49 1.39-.55.32-.04.65-.04.97-.09.26-.04.39-.17.41-.44v-4.64c0-.1-.03-.18-.12-.23-.09-.05-.18-.03-.27-.01l-4.6 1.08c-.09.02-.15.07-.18.16-.01.05-.02.11-.02.17v6.67c0 .18-.01.36-.04.54-.12.76-.53 1.3-1.24 1.63-.39.18-.8.27-1.23.29-.2.01-.4.01-.59-.01-.87-.1-1.56-.58-1.84-1.41-.28-.83-.02-1.74.68-2.29.4-.31.87-.49 1.38-.55.32-.04.64-.04.96-.09.27-.05.4-.18.42-.46V7.47c0-.36.11-.6.44-.73l5.73-1.34c.12-.03.25-.05.37-.05.24 0 .4.15.42.4v4.78z"/></svg>